<svg width="431" height="185" fill="none" xmlns="http://www.w3.org/2000/svg" viewBox="0 0 1768 792">
    <rect x="304.99" y="232.5" width="138.9" height="8.62" fill="white" />
    <path d="M360.82,231.81a104.31,104.31,0,0,1,5.11-32.8,83.14,83.14,0,0,1,14.87-27.36,71.24,71.24,0,0,1,23.95-18.73Q418.94,146,437.33,146a77.77,77.77,0,0,1,23.83,3.63,63.51,63.51,0,0,1,35.42,27.7,61.54,61.54,0,0,1,8.17,22.7h-9.53q-5.69-21.33-20.43-33.37t-37.24-12q-16.33,0-28.83,6.35a62,62,0,0,0-20.88,17,75,75,0,0,0-12.72,24.63A102.15,102.15,0,0,0,375,261a70.21,70.21,0,0,0,12.48,23.95,59.69,59.69,0,0,0,20.78,16.23q12.48,6,29.28,6a68,68,0,0,0,26.11-4.77A55.25,55.25,0,0,0,483.3,289a56.16,56.16,0,0,0,12.14-20.77,74,74,0,0,0,3.41-27.13H439.14V232.5h68.34V312h-8.63V277.44h-.45a49.66,49.66,0,0,1-8.86,16,54.68,54.68,0,0,1-14,12,70.55,70.55,0,0,1-17.94,7.61,76.71,76.71,0,0,1-20.54,2.72q-18.39,0-32.58-6.58a70,70,0,0,1-23.95-17.94,76.92,76.92,0,0,1-14.76-26.67A105.25,105.25,0,0,1,360.82,231.81Z" fill="white" />
    <path d="M678.42,149.86h10.9l64,162.09H742.67l-20.43-52H644.6l-20.66,52H613.27Zm40.64,101.48-34.73-91.72h-.46l-36.09,91.72Z" fill="white" />
    <path d="M860.27,149.86h67.65a88.89,88.89,0,0,1,20,2.15,47.27,47.27,0,0,1,16.34,7,33.73,33.73,0,0,1,11,12.83q4,8,4,19.75,0,16.35-9.2,27.58t-25.54,14v.45q11.13,1.37,17.6,5.9a28.85,28.85,0,0,1,9.64,11.13,45,45,0,0,1,4.09,14.53,141.08,141.08,0,0,1,.91,15.89v9.31a75.71,75.71,0,0,0,.45,8.51,42.27,42.27,0,0,0,1.48,7.38A16.4,16.4,0,0,0,981.5,312H970.37a29.52,29.52,0,0,1-3.52-13.28q-.35-7.6-.34-15.78c0-5.45-.23-10.85-.68-16.23a34.45,34.45,0,0,0-4.31-14.41A25.77,25.77,0,0,0,950.05,242q-7.83-3.85-22.13-3.86H870.26V312h-10Zm67.65,79.68a60.11,60.11,0,0,0,16.46-2.15,35,35,0,0,0,13-6.7,31.85,31.85,0,0,0,8.63-11.58,40.55,40.55,0,0,0,3.18-16.8,33,33,0,0,0-3.41-15.55,30.13,30.13,0,0,0-9.08-10.56,37.4,37.4,0,0,0-13.17-5.9,66.24,66.24,0,0,0-15.66-1.81H870.26v71Z" fill="white" />
    <path d="M1098.64,149.86h53.12q21.79,0,36.21,6.81a61.09,61.09,0,0,1,23,18.16,69.29,69.29,0,0,1,12.15,25.88,127.23,127.23,0,0,1,3.52,30,112.13,112.13,0,0,1-4.43,32.12,69.82,69.82,0,0,1-13.73,25.77,64.69,64.69,0,0,1-23.5,17.14q-14.19,6.24-33.71,6.24h-52.67Zm53.57,153.47a77.29,77.29,0,0,0,22.82-3.52A55.39,55.39,0,0,0,1195.8,288q9.32-8.28,15.1-22.25t5.79-35.07q0-16.58-3.29-28.38a70.11,70.11,0,0,0-8.63-19.86,45,45,0,0,0-12.26-12.72,60.73,60.73,0,0,0-14.3-7.15,69.31,69.31,0,0,0-14.76-3.29,125,125,0,0,0-13.28-.79h-41.54V303.33Z" fill="white" />
    <path d="M1388.09,149.86H1399L1463,312h-10.67l-20.43-52h-77.64l-20.66,52h-10.67Zm40.64,101.48L1394,159.62h-.45l-36.1,91.72Z" fill="white" />
    <path d="M265.57,560.14a105,105,0,0,1-5.28,33.63A80.52,80.52,0,0,1,245,621.09a70.85,70.85,0,0,1-24.45,18.25Q206.11,646,187.75,646t-32.95-6.66a70.8,70.8,0,0,1-24.56-18.25A80.67,80.67,0,0,1,115,593.77a109.74,109.74,0,0,1,0-67.26,80.81,80.81,0,0,1,15.26-27.31A70.8,70.8,0,0,1,154.8,481q14.58-6.66,32.95-6.66T220.57,481A70.85,70.85,0,0,1,245,499.2a80.66,80.66,0,0,1,15.27,27.31A105,105,0,0,1,265.57,560.14Zm-145.77,0A95.29,95.29,0,0,0,124.39,590a73.35,73.35,0,0,0,13.31,24.45,64.48,64.48,0,0,0,21.35,16.64q12.63,6.2,28.7,6.2t28.58-6.2a64.84,64.84,0,0,0,21.23-16.64A73.55,73.55,0,0,0,250.88,590a99.32,99.32,0,0,0,0-59.69,73.55,73.55,0,0,0-13.32-24.45,64.84,64.84,0,0,0-21.23-16.64Q203.8,483,187.75,483t-28.7,6.2a64.48,64.48,0,0,0-21.35,16.64,73.35,73.35,0,0,0-13.31,24.45A95.22,95.22,0,0,0,119.8,560.14Z" fill="white" />
    <path d="M383.33,478.19h10.1V633.37h93v8.73H383.33Z" fill="white" />
    <path d="M594.3,478.19h10.1V633.37h93v8.73H594.3Z" fill="white" />
    <path d="M805.26,478.19H915.45v8.72H815.36v65.66h94.12v8.72H815.36v72.08H916.6v8.73H805.26Z" fill="white" />
    <path d="M1030,478.19h68.41a89.61,89.61,0,0,1,20.2,2.18,47.71,47.71,0,0,1,16.53,7.12,34,34,0,0,1,11.13,13q4,8,4,20,0,16.53-9.3,27.89t-25.82,14.12v.46q11.24,1.38,17.79,6a29.09,29.09,0,0,1,9.75,11.25,45.38,45.38,0,0,1,4.14,14.69,141.91,141.91,0,0,1,.91,16.07v9.41a77.46,77.46,0,0,0,.46,8.61,43.18,43.18,0,0,0,1.5,7.46,16.79,16.79,0,0,0,2.87,5.74h-11.25a29.76,29.76,0,0,1-3.56-13.43q-.35-7.7-.34-16t-.69-16.41a35.11,35.11,0,0,0-4.36-14.58,26.28,26.28,0,0,0-11.6-10.33q-7.92-3.9-22.38-3.9H1040.1V642.1H1030Zm68.41,80.58a60.93,60.93,0,0,0,16.64-2.18,35.33,35.33,0,0,0,13.2-6.78,32.24,32.24,0,0,0,8.73-11.7,41.11,41.11,0,0,0,3.21-17,33.48,33.48,0,0,0-3.44-15.73,30.32,30.32,0,0,0-9.19-10.67,37.68,37.68,0,0,0-13.31-6,67.23,67.23,0,0,0-15.84-1.84H1040.1v71.86Z" fill="white" />
    <path d="M1419.33,560.14a105,105,0,0,1-5.28,33.63,80.67,80.67,0,0,1-15.26,27.32,71,71,0,0,1-24.45,18.25q-14.46,6.66-32.83,6.66t-32.94-6.66A70.62,70.62,0,0,1,1284,621.09a80.52,80.52,0,0,1-15.27-27.32,109.74,109.74,0,0,1,0-67.26A80.66,80.66,0,0,1,1284,499.2,70.62,70.62,0,0,1,1308.57,481q14.58-6.66,32.94-6.66t32.83,6.66a71,71,0,0,1,24.45,18.25,80.81,80.81,0,0,1,15.26,27.31A105,105,0,0,1,1419.33,560.14Zm-145.77,0a95.29,95.29,0,0,0,4.59,29.85,73.37,73.37,0,0,0,13.32,24.45,64.37,64.37,0,0,0,21.35,16.64q12.62,6.2,28.69,6.2t28.58-6.2a64.87,64.87,0,0,0,21.24-16.64A73.53,73.53,0,0,0,1404.64,590a99.32,99.32,0,0,0,0-59.69,73.53,73.53,0,0,0-13.31-24.45,64.87,64.87,0,0,0-21.24-16.64q-12.51-6.19-28.58-6.2t-28.69,6.2a64.37,64.37,0,0,0-21.35,16.64,73.37,73.37,0,0,0-13.32,24.45A95.22,95.22,0,0,0,1273.56,560.14Z" fill="white" />
    <path d="M1644.07,525a43.88,43.88,0,0,0-4.48-18.36,38.42,38.42,0,0,0-10.9-13.09,47.57,47.57,0,0,0-16.41-7.92A77.67,77.67,0,0,0,1591.5,483a74.85,74.85,0,0,0-14.81,1.61,47,47,0,0,0-14.69,5.62A33.36,33.36,0,0,0,1550.87,501q-4.36,6.78-4.36,16.87,0,9.89,4.82,16.07A35,35,0,0,0,1564,544a82.26,82.26,0,0,0,17.91,6.08q10.1,2.3,20.43,4.36,10.56,2.07,20.54,4.94a70.69,70.69,0,0,1,17.91,7.81A38.55,38.55,0,0,1,1653.48,580q4.83,7.92,4.82,19.86,0,12.85-5.51,21.58a46.56,46.56,0,0,1-13.88,14.23,57.84,57.84,0,0,1-18.6,7.92,85.25,85.25,0,0,1-19.63,2.41,113.08,113.08,0,0,1-27.08-3.1,60.68,60.68,0,0,1-22-10.1,48.76,48.76,0,0,1-14.81-18q-5.4-11-5.16-26.86h10.1q-.69,13.55,3.9,22.84A41.27,41.27,0,0,0,1558.33,626a52.83,52.83,0,0,0,19.17,8.61,99.14,99.14,0,0,0,23.18,2.64,73.34,73.34,0,0,0,15.73-1.84,48.4,48.4,0,0,0,15.38-6.2,38,38,0,0,0,11.71-11.48q4.7-7.11,4.7-17.9,0-10.33-4.82-16.87a35.28,35.28,0,0,0-12.74-10.56,81.57,81.57,0,0,0-17.91-6.43q-10-2.41-20.54-4.48-10.34-2.07-20.43-4.82a70.26,70.26,0,0,1-17.91-7.46,38.37,38.37,0,0,1-12.62-12.17q-4.83-7.46-4.82-19.17t4.93-20.08a40.43,40.43,0,0,1,12.86-13.55A57.21,57.21,0,0,1,1572,476.7a81.84,81.84,0,0,1,19.51-2.41,96,96,0,0,1,24,2.87,57.18,57.18,0,0,1,19.51,8.95,44.78,44.78,0,0,1,13.43,15.73q5.05,9.63,5.74,23.18Z" fill="white" />
    <rect x="749.46" y="552.55" width="138.9" height="8.62" fill="white" />
</svg>