<?xml version="1.0" standalone="no"?>
<!DOCTYPE svg PUBLIC "-//W3C//DTD SVG 20010904//EN"
 "http://www.w3.org/TR/2001/REC-SVG-20010904/DTD/svg10.dtd">
<svg version="1.0" xmlns="http://www.w3.org/2000/svg"
 width="659.000000pt" height="659.000000pt" viewBox="0 0 659.000000 659.000000"
 preserveAspectRatio="xMidYMid meet">
<metadata>
Created by potrace 1.14, written by Peter Selinger 2001-2017
</metadata>
<g transform="translate(0.000000,659.000000) scale(0.100000,-0.100000)"
fill="#000000" stroke="none">
<path d="M3775 6585 c-5 -2 -37 -11 -70 -21 -132 -39 -223 -125 -276 -258 -18
-45 -38 -94 -45 -111 -18 -42 -191 -476 -219 -551 l-23 -61 272 2 c250 2 276
3 330 23 104 38 176 102 212 189 32 75 37 88 40 98 3 11 120 299 134 330 23
51 140 349 140 357 0 8 -470 10 -495 3z"/>
<path d="M2891 4903 c-12 -24 -49 -117 -249 -638 -93 -242 -172 -449 -177
-460 -4 -11 -16 -40 -25 -65 -9 -25 -97 -252 -195 -505 -98 -253 -204 -527
-235 -610 -159 -414 -301 -782 -309 -800 -5 -11 -43 -108 -84 -215 -323 -846
-323 -844 -385 -888 -42 -31 -104 -43 -218 -44 l-104 -1 0 -334 c0 -310 1
-333 18 -334 126 -7 452 1 527 12 123 18 150 26 230 68 151 78 233 198 355
521 34 91 66 174 71 185 12 29 109 287 114 305 2 8 65 177 140 375 75 198 144
383 154 410 10 28 124 334 253 680 130 347 262 700 293 785 60 164 76 207 124
335 59 158 91 252 91 265 0 26 17 -5 46 -85 15 -44 29 -82 30 -85 0 -3 4 -12
7 -20 10 -23 69 -184 71 -195 2 -5 6 -17 9 -25 8 -19 251 -676 278 -750 11
-30 33 -89 49 -130 16 -41 72 -192 125 -335 53 -143 106 -287 120 -320 13 -33
69 -184 125 -335 56 -151 110 -295 120 -320 10 -25 77 -205 150 -400 72 -195
138 -369 146 -387 8 -17 14 -36 14 -42 0 -6 4 -19 10 -29 5 -9 28 -55 50 -101
126 -259 268 -354 565 -377 67 -6 327 -8 443 -5 l32 1 0 335 0 335 -102 -1
c-123 -1 -177 10 -224 46 -47 36 -66 68 -115 195 -22 58 -44 114 -49 125 -5
11 -39 99 -76 195 -37 96 -76 198 -86 225 -11 28 -32 84 -48 125 -16 41 -53
138 -83 215 -122 315 -321 832 -387 1005 -39 102 -75 194 -80 205 -4 11 -27
70 -50 130 -72 189 -141 369 -150 390 -5 11 -44 110 -86 220 -93 242 -81 211
-243 635 -73 190 -139 359 -146 375 -7 17 -24 58 -37 93 l-23 62 -392 0 c-363
0 -393 -1 -402 -17z"/>
</g>
</svg>
