<svg width="197" height="30" viewBox="0 0 197 30" fill="none" xmlns="http://www.w3.org/2000/svg">
<g clip-path="url(#clip0_213_1088)">
<path d="M9.50052 15.1518C9.49221 13.1863 9.78939 11.2326 10.3803 9.36533C10.9235 7.60222 11.7783 5.95963 12.9016 4.52242C14.0188 3.13273 15.4087 2.00632 16.9778 1.21797C18.7124 0.381037 20.607 -0.0356164 22.5193 -0.000378703C23.8967 -0.0069442 25.2668 0.20908 26.5804 0.639468C29.0885 1.46533 31.2277 3.20023 32.6066 5.52773C33.3186 6.75942 33.787 8.12598 33.9847 9.54787H32.3718C31.8496 7.24395 30.632 5.17386 28.897 3.63942C27.0901 2.18428 24.8485 1.43483 22.5637 1.52246C20.9415 1.47785 19.3314 1.82796 17.8626 2.54451C16.3938 3.26105 15.107 4.32413 14.1043 5.64931C13.1329 6.95251 12.3977 8.42844 11.9345 10.0048C11.4452 11.6732 11.1981 13.4078 11.2014 15.1518C11.1879 16.9005 11.4297 18.6414 11.9194 20.3145C12.3555 21.8561 13.0779 23.2944 14.0456 24.548C14.9993 25.7681 16.2077 26.7469 17.5791 27.4108C19.1404 28.1571 20.8455 28.5217 22.5637 28.4767C24.0683 28.4969 25.5622 28.2127 26.962 27.6394C28.2244 27.1083 29.3602 26.2975 30.2901 25.2637C31.2348 24.2164 31.9407 22.962 32.3568 21.5934C32.8382 20.0463 33.0377 18.4196 32.9438 16.7966H22.7835V15.2738H34.4099V29.3143H32.9438V23.223H32.8701C32.5505 24.2516 32.0538 25.2115 31.404 26.0556C30.7329 26.8954 29.9297 27.6109 29.0287 28.1722C28.0751 28.7636 27.0501 29.2197 25.9798 29.5277C24.8375 29.8476 23.6587 30.0061 22.4756 29.9995C20.5691 30.0395 18.6769 29.6444 16.9334 28.8422C15.3764 28.0942 13.9882 27.0154 12.8579 25.6749C11.7318 24.2876 10.88 22.6833 10.351 20.954C9.7772 19.078 9.49015 17.1201 9.50052 15.1518Z" fill="white"/>
<path d="M63.5405 0.685059H65.3881L76.2815 29.3146H74.4632L70.9884 20.1775H57.7935L54.275 29.3146H52.4717L63.5405 0.685059ZM70.4457 18.6089L64.5813 2.40606L58.4385 18.6089H70.4457Z" fill="white"/>
<path d="M94.4754 0.684893H105.984C107.124 0.674678 108.26 0.802444 109.371 1.0656C110.369 1.28151 111.316 1.70085 112.157 2.2992C112.957 2.87885 113.603 3.65944 114.034 4.56822C114.516 5.66046 114.747 6.85452 114.708 8.05558C114.758 9.82183 114.202 11.549 113.139 12.9286C112.026 14.2997 110.455 15.1815 108.741 15.3958V15.4872C109.784 15.5812 110.79 15.9364 111.673 16.5227C112.373 17.0201 112.939 17.6968 113.315 18.4872C113.686 19.2972 113.92 20.1679 114.004 21.0607C114.109 21.9908 114.163 22.9265 114.165 23.8629V25.5835C114.165 26.1165 114.165 26.619 114.238 27.1064C114.288 27.5491 114.371 27.9873 114.488 28.4162C114.585 28.7756 114.75 29.1117 114.971 29.4059H113.08C112.709 28.6823 112.504 27.8799 112.48 27.0606C112.48 26.1621 112.48 25.2331 112.48 24.2737C112.48 23.3143 112.479 22.3551 112.376 21.4109C112.309 20.5187 112.059 19.6518 111.643 18.8679C111.182 18.07 110.496 17.4375 109.679 17.0554C108.493 16.5386 107.21 16.3045 105.926 16.3702H96.1177V29.4059H94.4167L94.4754 0.684893ZM105.984 14.7559C106.93 14.7659 107.873 14.6377 108.785 14.3752C109.596 14.1486 110.351 13.7438 110.998 13.1877C111.635 12.6373 112.138 11.9379 112.465 11.147C112.85 10.2097 113.036 9.19651 113.007 8.17753C113.032 7.22929 112.836 6.28874 112.435 5.43634C112.061 4.6975 111.529 4.05696 110.881 3.56327C110.203 3.07346 109.442 2.72214 108.638 2.52784C107.769 2.3121 106.878 2.20443 105.984 2.20774H96.1764V14.7559H105.984Z" fill="white"/>
<path d="M135.028 0.684891H144.059C146.172 0.607974 148.275 1.01892 150.217 1.888C151.76 2.60185 153.11 3.70048 154.146 5.08611C155.126 6.44571 155.825 8.00112 156.198 9.65464C156.607 11.3838 156.809 13.1585 156.8 14.9389C156.815 16.8598 156.563 18.7729 156.052 20.619C155.598 22.2976 154.804 23.8555 153.721 25.1876C152.628 26.5071 151.259 27.549 149.718 28.2332C147.901 29.0055 145.949 29.3788 143.986 29.3296H135.028V0.684891ZM144.133 27.7916C145.451 27.7918 146.761 27.5813 148.018 27.1673C149.331 26.7549 150.538 26.0418 151.551 25.0809C152.68 23.9882 153.557 22.6455 154.117 21.1522C154.831 19.1727 155.165 17.0669 155.099 14.9541C155.134 13.2655 154.947 11.5797 154.542 9.94389C154.234 8.70358 153.739 7.52147 153.076 6.44128C152.534 5.55313 151.826 4.78682 150.994 4.1875C150.24 3.65585 149.422 3.23105 148.56 2.9238C147.747 2.6371 146.907 2.44288 146.053 2.34492C145.303 2.25904 144.55 2.21317 143.795 2.20773H136.714V27.7916H144.133Z" fill="white"/>
<path d="M184.26 0.685059H186.122L197.015 29.3146H195.197L191.722 20.1775H178.527L175.009 29.3146H173.19L184.26 0.685059ZM191.18 18.6089L185.315 2.40606H185.242L179.099 18.6089H191.18Z" fill="white"/>
<path d="M23.6336 15.2893H0V16.8122H23.6336V15.2893Z" fill="white"/>
</g>
<defs>
<clipPath id="clip0_213_1088">
<rect width="197" height="30" fill="white"/>
</clipPath>
</defs>
</svg>
