<svg width="572" height="68" viewBox="0 0 572 68" fill="none" xmlns="http://www.w3.org/2000/svg">
<path d="M17.1103 63.7027C11.9887 61.0487 7.70235 57.0278 4.72675 52.0861C1.77525 46.9544 0.221924 41.1381 0.221924 35.2181C0.221924 29.2982 1.77525 23.4819 4.72675 18.3502C7.70449 13.4081 11.9901 9.38513 17.1103 6.72542C22.5953 3.89019 28.6966 2.45638 34.8703 2.55184C40.2195 2.47357 45.5262 3.5129 50.4507 5.60333C54.9554 7.54516 58.9141 10.564 61.9785 14.3945L50.6283 24.6307C46.5435 19.7225 41.5895 17.2684 35.7664 17.2684C32.5771 17.2109 29.4278 17.9843 26.6281 19.5126C23.9922 20.9904 21.8436 23.2036 20.4443 25.882C18.9947 28.7951 18.2402 32.0046 18.2402 35.2585C18.2402 38.5123 18.9947 41.7219 20.4443 44.635C21.8683 47.284 24.0305 49.463 26.6684 50.9075C29.4669 52.4393 32.6171 53.2129 35.8067 53.1517C41.6353 53.1517 46.5892 50.7003 50.6686 45.7974L62.0189 56.0256C58.9547 59.8583 54.9962 62.8799 50.491 64.8248C45.5729 66.9064 40.2748 67.9402 34.9349 67.8602C28.7612 67.9556 22.6599 66.5218 17.1749 63.6866" fill="white"/>
<path d="M88.78 21.216L96.8527 41.317H80.675L88.78 21.216ZM80.1422 3.81116L52.2913 66.625H70.4549L75.4115 54.4191H102.052L107.008 66.625H125.575L97.6519 3.81116H80.1422Z" fill="white"/>
<path d="M128.958 65.9953C124.8 65.0147 120.846 63.3125 117.277 60.966L123.129 47.864C129.356 51.8022 136.55 53.9449 143.917 54.0558C150.762 54.0558 154.185 52.3524 154.185 48.9457C154.185 47.1455 153.208 45.8216 151.263 44.9497C148.211 43.7574 145.058 42.8415 141.842 42.2131C137.808 41.3938 133.835 40.2987 129.951 38.9356C126.791 37.788 123.973 35.8609 121.757 33.3331C119.472 30.7579 118.334 27.2947 118.334 22.9193C118.295 19.2254 119.394 15.6089 121.483 12.562C123.852 9.26689 127.124 6.72701 130.903 5.24807C135.074 3.44516 140.187 2.5464 146.242 2.55178C150.366 2.55029 154.477 3.01882 158.496 3.94835C162.227 4.75788 165.812 6.13266 169.128 8.02509L163.63 21.2159C157.624 17.9868 151.798 16.3723 146.153 16.3723C142.606 16.3723 140.026 16.897 138.411 17.9465C137.681 18.3489 137.072 18.9389 136.646 19.6556C136.22 20.3723 135.993 21.1896 135.989 22.0232C135.989 23.7023 136.95 24.959 138.871 25.7932C141.879 26.9454 144.987 27.8183 148.155 28.4006C152.195 29.2108 156.174 30.3033 160.062 31.6701C163.204 32.837 166.015 34.7483 168.256 37.2403C170.565 39.7751 171.719 43.2383 171.719 47.5976C171.755 51.2508 170.655 54.8249 168.571 57.8257C166.461 60.8772 163.307 63.3152 159.109 65.1396C154.912 66.9641 149.799 67.8763 143.771 67.8763C138.757 67.8863 133.763 67.2542 128.909 65.9953" fill="white"/>
<path d="M199.853 21.216L207.925 41.317H191.748L199.853 21.216ZM191.207 3.81116L163.364 66.625H181.56L186.517 54.4191H213.157L218.186 66.625H236.753L208.83 3.81116H191.207Z" fill="white"/>
<path d="M274.695 47.42C274.695 43.1738 271.573 41.0507 265.33 41.0507H250.388V53.7894H265.347C271.595 53.7894 274.716 51.6663 274.711 47.42H274.695ZM250.388 16.6387V28.7478H262.642C268.648 28.7478 271.651 26.7135 271.651 22.6448C271.651 18.5762 268.648 16.5715 262.642 16.6307L250.388 16.6387ZM289.67 39.7509C291.751 42.5285 292.832 45.9283 292.737 49.3979C292.831 51.918 292.265 54.4189 291.096 56.6532C289.926 58.8875 288.194 60.7776 286.069 62.1366C281.624 65.1289 275.198 66.625 266.792 66.625H232.717V3.81116H265.007C273.08 3.81116 279.207 5.29116 283.389 8.25116C285.366 9.55142 286.98 11.3332 288.079 13.429C289.177 15.5247 289.725 17.8655 289.67 20.2311C289.715 23.0649 288.947 25.8524 287.458 28.2635C285.933 30.6777 283.767 32.6202 281.201 33.874C284.546 34.9465 287.495 36.9928 289.67 39.7509Z" fill="white"/>
<path d="M300.253 60.2476C295.054 55.1725 292.455 47.9663 292.455 38.6288V3.81116H310.295V38.0879C310.295 48.1358 314.291 53.1624 322.283 53.1678C330.275 53.1732 334.236 48.1466 334.167 38.0879V3.81116H351.741V38.6288C351.741 47.9609 349.144 55.1672 343.951 60.2476C338.757 65.328 331.473 67.8655 322.098 67.8602C312.733 67.8602 305.452 65.3172 300.253 60.2314" fill="white"/>
<path d="M356.601 3.8031V66.617H407.233V52.8853H374.256V41.4059H402.276V28.1182H374.256V17.5348H406.062V3.8031H356.601Z" fill="white"/>
<path d="M452.456 3.8031V37.2807L424.614 3.8031H409.929V66.617H427.407V33.1475L455.249 66.617H469.934V3.8031H452.456Z" fill="white"/>
<path d="M502.451 21.216L510.523 41.317H494.346L502.451 21.216ZM493.805 3.81116L465.962 66.625H484.166L489.123 54.4191H515.763L520.711 66.625H539.278L511.347 3.81116H493.805Z" fill="white"/>
<path d="M548.11 63.8238C546.789 62.5649 545.748 61.0428 545.053 59.356C544.357 57.6693 544.024 55.8554 544.074 54.0316C544.005 52.2134 544.321 50.4012 545.001 48.7137C545.681 47.0262 546.711 45.5015 548.021 44.2394C550.761 41.8249 554.287 40.4928 557.939 40.4928C561.59 40.4928 565.116 41.8249 567.856 44.2394C570.361 46.8879 571.752 50.3987 571.74 54.0445C571.728 57.6903 570.314 61.1918 567.791 63.8238C565.107 66.302 561.588 67.6781 557.934 67.6781C554.281 67.6781 550.762 66.302 548.078 63.8238H548.11ZM548.078 23.331C546.756 22.073 545.714 20.5511 545.018 18.8641C544.323 17.1771 543.99 15.3628 544.041 13.5388C543.974 11.722 544.29 9.91133 544.971 8.2253C545.651 6.53927 546.679 5.01583 547.989 3.75465C550.726 1.33534 554.253 0 557.906 0C561.559 0 565.086 1.33534 567.824 3.75465C570.328 6.40186 571.719 9.91127 571.707 13.5557C571.695 17.2002 570.281 20.7004 567.759 23.331C565.075 25.8092 561.556 27.1853 557.902 27.1853C554.249 27.1853 550.73 25.8092 548.045 23.331" fill="white"/>
</svg>
