<svg class="md:w-[40rem]" width="491" height="185" viewBox="0 0 491 185" fill="none" xmlns="http://www.w3.org/2000/svg">
    <g clip-path="url(#clip0_1162_30962)">
        <path d="M82.4944 32.0049H31.0488V35.1943H82.4944V32.0049Z" fill="white"></path>
        <path d="M51.7236 31.7497C51.7236 27.4947 52.3533 23.4469 53.6163 19.61C54.8793 15.7731 56.7126 12.4024 59.1238 9.4868C61.535 6.5749 64.4906 4.2661 67.9944 2.5567C71.4982 0.8547 75.5205 0 80.0613 0C83.1429 0 86.0874 0.4477 88.8911 1.3431C91.6949 2.2385 94.2024 3.5557 96.4172 5.291C98.6321 7.0263 100.495 9.1279 102.01 11.5921C103.525 14.0563 104.532 16.8572 105.036 19.9911H101.503C100.099 14.726 97.5802 10.6116 93.9357 7.6442C90.2912 4.6768 85.6948 3.1931 80.1465 3.1931C76.1094 3.1931 72.55 3.9775 69.4685 5.5463C66.3832 7.1151 63.8054 9.213 61.7313 11.8474C59.6571 14.4818 58.0867 17.5158 57.0238 20.9605C55.9571 24.4052 55.4274 28.0016 55.4274 31.7534C55.4274 35.5607 55.946 39.1608 56.983 42.5463C58.0201 45.9355 59.5608 48.8881 61.609 51.4078C63.6535 53.9275 66.2203 55.9292 69.3018 57.4129C72.3834 58.8966 75.9983 59.6366 80.1502 59.6366C83.7355 59.6366 86.9615 59.0483 89.8208 57.8717C92.6801 56.6951 95.1024 55.0449 97.095 52.9174C99.084 50.7899 100.584 48.2295 101.595 45.2325C102.603 42.2392 103.025 38.8907 102.858 35.1944H80.7428V32.005H106.051V61.4052H102.854V48.6365H102.688C101.958 50.8195 100.865 52.7953 99.4099 54.5602C97.9506 56.3251 96.2283 57.8088 94.2394 59.0113C92.2505 60.2175 90.0356 61.1536 87.5948 61.827C85.1577 62.5004 82.6206 62.8334 79.9872 62.8334C75.4464 62.8334 71.4241 62.0194 67.9203 60.3988C64.4165 58.7745 61.4609 56.5619 59.0497 53.761C56.6386 50.9601 54.8163 47.6708 53.5829 43.8931C52.3422 40.108 51.7236 36.0639 51.7236 31.7497Z" fill="white"></path>
        <path d="M169.359 1.42773H173.397L197.108 61.401H193.156L185.589 42.1647H156.833L149.181 61.401H145.226L169.359 1.42773ZM184.412 38.9753L171.545 5.03893H171.378L158.007 38.9753H184.412Z" fill="white"></path>
        <path d="M236.709 1.42773H261.765C264.398 1.42773 266.865 1.69413 269.165 2.22693C271.462 2.75973 273.48 3.62553 275.217 4.83173C276.954 6.03793 278.314 7.61783 279.295 9.57883C280.277 11.5398 280.765 13.9744 280.765 16.8863C280.765 20.9193 279.628 24.3196 277.358 27.0909C275.088 29.8622 271.936 31.5864 267.899 32.2561V32.4226C270.647 32.7593 272.817 33.4882 274.417 34.6056C276.014 35.7267 277.206 37.0994 277.991 38.72C278.777 40.3443 279.28 42.1351 279.506 44.0961C279.728 46.0571 279.843 48.0181 279.843 49.9754C279.843 51.152 279.843 52.299 279.843 53.4201C279.843 54.5412 279.899 55.592 280.01 56.5688C280.121 57.5493 280.303 58.4595 280.558 59.2994C280.81 60.1393 281.162 60.8386 281.61 61.401H277.488C276.702 60.0024 276.269 58.3633 276.184 56.4874C276.099 54.6115 276.058 52.6653 276.058 50.6488C276.058 48.6323 275.973 46.6306 275.806 44.6437C275.639 42.6568 275.106 40.8771 274.21 39.3083C273.313 37.7395 271.899 36.4815 269.962 35.5269C268.028 34.576 265.295 34.0987 261.765 34.0987H240.409V61.3973H236.709V1.42773ZM261.765 30.9093C263.95 30.9093 265.984 30.6429 267.862 30.1101C269.739 29.5773 271.35 28.7522 272.699 27.6311C274.043 26.5137 275.106 25.0855 275.891 23.3465C276.677 21.6112 277.069 19.5392 277.069 17.1305C277.069 14.892 276.647 12.9717 275.806 11.377C274.965 9.78233 273.843 8.47993 272.443 7.46983C271.039 6.46343 269.417 5.73453 267.565 5.28683C265.713 4.83913 263.784 4.61343 261.765 4.61343H240.409V30.9056H261.765V30.9093Z" fill="white"></path>
        <path d="M324.996 1.42773H344.671C350.052 1.42773 354.523 2.26763 358.082 3.94743C361.641 5.62723 364.486 7.86943 366.616 10.6666C368.745 13.4675 370.245 16.6606 371.116 20.2422C371.982 23.8275 372.419 27.5238 372.419 31.3311C372.419 35.5861 371.871 39.5488 370.779 43.2155C369.686 46.8859 367.99 50.0605 365.693 52.7504C363.393 55.4403 360.493 57.553 356.989 59.0922C353.486 60.6314 349.323 61.401 344.504 61.401H324.996V1.42773ZM344.841 58.2116C347.645 58.2116 350.46 57.7787 353.293 56.9092C356.123 56.0397 358.689 54.5856 360.986 52.5395C363.282 50.4971 365.149 47.7517 366.579 44.307C368.008 40.8623 368.723 36.537 368.723 31.3311C368.723 27.2426 368.316 23.7424 367.504 20.8305C366.69 17.9186 365.627 15.4692 364.308 13.4786C362.99 11.4917 361.478 9.92293 359.767 8.77593C358.056 7.62893 356.289 6.74833 354.471 6.13043C352.649 5.51623 350.826 5.10923 349.004 4.91313C347.182 4.71703 345.541 4.62083 344.085 4.62083H328.696V58.2116H344.841Z" fill="white"></path>
        <path d="M432.206 1.42773H436.243L459.955 61.401H456.003L448.436 42.1647H419.68L412.028 61.401H408.076L432.206 1.42773ZM447.255 38.9753L434.392 5.03893H434.225L420.854 38.9753H447.255Z" fill="white"></path>
        <path d="M126.547 153.413H75.1016V156.602H126.547V153.413Z" fill="white"></path>
        <path d="M95.7803 153.162C95.7803 148.907 96.4099 144.859 97.6729 141.022C98.9359 137.185 100.769 133.814 103.18 130.899C105.592 127.987 108.547 125.678 112.051 123.969C115.555 122.263 119.577 121.408 124.118 121.408C127.199 121.408 130.144 121.856 132.948 122.751C135.752 123.647 138.259 124.964 140.474 126.699C142.689 128.434 144.552 130.536 146.067 133C147.581 135.464 148.589 138.265 149.093 141.399H145.559C144.159 136.134 141.637 132.02 137.992 129.052C134.348 126.085 129.751 124.601 124.203 124.601C120.166 124.601 116.607 125.386 113.525 126.955C110.44 128.523 107.862 130.621 105.788 133.256C103.714 135.89 102.143 138.924 101.08 142.369C100.014 145.813 99.4841 149.41 99.4841 153.162C99.4841 156.969 100.003 160.569 101.04 163.955C102.077 167.344 103.617 170.296 105.666 172.816C107.71 175.336 110.277 177.337 113.358 178.821C116.44 180.305 120.055 181.045 124.207 181.045C127.792 181.045 131.018 180.457 133.877 179.28C136.737 178.103 139.159 176.453 141.152 174.326C143.141 172.198 144.641 169.638 145.652 166.641C146.659 163.647 147.081 160.299 146.915 156.603H124.799V153.41H150.107V182.81H146.911V170.041H146.744C146.015 172.224 144.922 174.2 143.467 175.965C142.007 177.73 140.285 179.213 138.296 180.416C136.307 181.622 134.092 182.558 131.651 183.232C129.214 183.905 126.677 184.238 124.044 184.238C119.503 184.238 115.481 183.424 111.977 181.803C108.473 180.179 105.518 177.966 103.106 175.166C100.695 172.365 98.8729 169.075 97.6396 165.294C96.3988 161.52 95.7803 157.472 95.7803 153.162Z" fill="white"></path>
        <path d="M3.72601 123.162V159.367C3.72601 160.551 3.78157 161.934 3.89638 163.511C4.0075 165.091 4.29269 166.711 4.74455 168.376C5.19641 170.041 5.82976 171.673 6.6483 173.282C7.46684 174.888 8.58168 176.327 9.99282 177.597C11.404 178.866 13.1373 179.883 15.2003 180.642C17.2597 181.404 19.7597 181.785 22.6968 181.785C26.4228 181.785 29.5414 181.263 32.0526 180.22C34.5637 179.176 36.5971 177.682 38.149 175.739C39.7009 173.793 40.8157 171.44 41.4935 168.676C42.1713 165.912 42.5084 162.811 42.5084 159.37V123.166H46.2344V159.37C46.2344 162.982 45.8529 166.337 45.0899 169.438C44.3269 172.539 43.0417 175.247 41.238 177.56C39.4305 179.872 37.0194 181.692 33.9971 183.017C30.9785 184.342 27.208 185.004 22.6931 185.004C19.1338 185.004 16.0856 184.553 13.5448 183.65C11.004 182.747 8.9002 181.578 7.2372 180.138C5.5705 178.699 4.25936 177.049 3.30007 175.192C2.34079 173.33 1.60744 171.458 1.09632 169.568C0.588902 167.681 0.277784 165.845 0.16667 164.069C0.0555568 162.286 0 160.721 0 159.367V123.162H3.72601Z" fill="white"></path>
        <path d="M214.009 123.162H218.075L241.954 183.565H237.976L230.353 164.191H201.393L193.69 183.565H189.708L214.009 123.162ZM229.164 160.976L216.209 126.799H216.038L202.575 160.976H229.164Z" fill="white"></path>
        <path d="M281.751 123.162H306.985C309.637 123.162 312.122 123.429 314.437 123.965C316.752 124.502 318.785 125.375 320.533 126.588C322.282 127.802 323.652 129.397 324.641 131.369C325.63 133.345 326.122 135.798 326.122 138.728C326.122 142.791 324.982 146.213 322.693 149.007C320.407 151.8 317.23 153.532 313.167 154.209V154.379C315.93 154.719 318.118 155.452 319.73 156.581C321.337 157.709 322.537 159.089 323.33 160.725C324.119 162.36 324.626 164.166 324.856 166.138C325.082 168.113 325.196 170.086 325.196 172.061C325.196 173.245 325.196 174.403 325.196 175.528C325.196 176.657 325.252 177.715 325.363 178.699C325.474 179.687 325.659 180.605 325.915 181.448C326.17 182.292 326.522 183.002 326.974 183.565H322.826C322.033 182.155 321.6 180.505 321.515 178.614C321.43 176.727 321.389 174.766 321.389 172.735C321.389 170.703 321.304 168.687 321.137 166.685C320.967 164.684 320.43 162.893 319.526 161.313C318.622 159.733 317.196 158.464 315.252 157.506C313.304 156.547 310.552 156.07 306.992 156.07H285.484V183.565H281.758V123.162H281.751ZM306.989 152.855C309.192 152.855 311.237 152.588 313.129 152.052C315.018 151.519 316.644 150.686 318 149.558C319.356 148.429 320.426 146.994 321.219 145.244C322.007 143.497 322.404 141.411 322.404 138.983C322.404 136.726 321.982 134.795 321.133 133.189C320.289 131.58 319.156 130.27 317.744 129.256C316.333 128.239 314.696 127.51 312.833 127.055C310.97 126.603 309.022 126.377 306.989 126.377H285.481V152.858H306.989V152.855Z" fill="white"></path>
        <path d="M363.979 126.374V123.162H410.298V126.374H388.961V183.561H385.235V126.374H363.979Z" fill="white"></path>
        <path d="M449.929 123.162H490.574V126.374H453.655V150.568H488.374V153.78H453.655V180.342H491V183.557H449.929V123.162Z" fill="white"></path>
    </g>
    <defs>
        <clipPath id="clip0_1162_30962">
            <rect width="491" height="185" fill="white"></rect>
        </clipPath>
    </defs>
</svg>